# xmcd
#
# Track frame offsets:
#	150
#	13310
#	27110
#	37995
#	53835
#	65837
#	81337
#	95535
#	111372
#	124145
#	143185
#
# Disc length: 2173 seconds
#
# Revision: 0
# Processed by: cddbd v1.5.2PL0 Copyright (c) Steve Scherf et al.
# Submitted via: dBpowerAMP V4.0
#
DISCID=9a087b0b
DTITLE=Various Artist - Play It Again Country
DYEAR=1996
DGENRE=Country
TTITLE0=Jo Lee Messina - You're Not In Kansas Anymore
TTITLE1=Tim McGraw - She Never Let's It Go To Her Heart
TTITLE2=Garth Brooks - It's Midnight Cinderella
TTITLE3=Suzy Boguss - Let's Get Real
TTITLE4=Suzy Bogguss - Give Me Some Wheels
TTITLE5=The Pankin Family - Forty Days And Forty Nights
TTITLE6=Jo Lee Messina - On A Wing And A Prayer
TTITLE7=George Lucas - Everytime She Passes By
TTITLE8=Leanne Rimes - Blue
TTITLE9=Laura Smith - Bells
TTITLE10=Laura Smith - Jordy
EXTD=
EXTT0=
EXTT1=
EXTT2=
EXTT3=
EXTT4=
EXTT5=
EXTT6=
EXTT7=
EXTT8=
EXTT9=
EXTT10=
PLAYORDER=
